<svg viewBox="0 0 128 128" xmlns="http://www.w3.org/2000/svg"><defs><linearGradient id="grn" x1="20" y1="20" x2="108" y2="108" gradientUnits="userSpaceOnUse"><stop offset="0" stop-color="#5bd47f"/><stop offset="1" stop-color="#2f9a49"/></linearGradient>
<linearGradient id="tea" x1="20" y1="20" x2="108" y2="108" gradientUnits="userSpaceOnUse"><stop offset="0" stop-color="#63ddf5"/><stop offset="1" stop-color="#046a6d"/></linearGradient></defs><rect x="12" y="12" width="104" height="104" rx="28" fill="#ffffff" stroke="#e3e8ea" stroke-width="2"/><g transform="translate(64 64) scale(0.6) translate(-64 -64)"><path d="M18.7 56.0 A46 46 0 0 1 103.8 41.0 L90.8 48.5 A31 31 0 0 0 33.5 58.6 Z" fill="url(#grn)"/><path d="M109.0 38.0 L101.4 54.7 L85.7 51.5 Z" fill="url(#grn)"/><g transform="rotate(180 64 64)"><path d="M18.7 56.0 A46 46 0 0 1 103.8 41.0 L90.8 48.5 A31 31 0 0 0 33.5 58.6 Z" fill="url(#tea)"/><path d="M109.0 38.0 L101.4 54.7 L85.7 51.5 Z" fill="url(#tea)"/></g></g></svg>